<svg width="133" height="32" viewBox="0 0 133 32" fill="none" xmlns="http://www.w3.org/2000/svg">
<path d="M17.1155 24.2773H10.373V32H0V2.71267e-05H16.3375C23.7715 2.71267e-05 27.4885 3.93958 27.4885 11.8187C27.4885 13.5538 27.3156 15.1751 26.9699 16.6827C26.6241 18.1902 26.0334 19.5129 25.1978 20.6507C24.391 21.76 23.3249 22.6418 21.9995 23.296C20.7028 23.9502 19.0749 24.2773 17.1155 24.2773ZM12.7502 8.19202H10.373V16.0853H12.7502C14.018 16.0853 14.9256 15.9573 15.4731 15.7013C16.0494 15.4453 16.3375 14.848 16.3375 13.9093V10.3254C16.3375 9.41513 16.0494 8.83202 15.4731 8.57602C14.9256 8.32002 14.018 8.19202 12.7502 8.19202Z" fill="#1EE0BD"/>
<path d="M51.3468 23.808H40.9738V2.71267e-05H30.6008V32H51.3468V23.808Z" fill="#1EE0BD"/>
<path d="M63.0986 26.9227H71.6563L72.8665 32H83.8014L75.4165 2.71267e-05H59.3815L50.9967 32H61.9316L63.0986 26.9227ZM67.68 9.81335L69.7546 18.7733H65.0003L67.1181 9.81335H67.68Z" fill="#1EE0BD"/>
<path d="M108.889 2.71267e-05H83.4749V8.19202H90.9953V32H101.368V8.19202H108.889V2.71267e-05Z" fill="#1EE0BD"/>
<path fill-rule="evenodd" clip-rule="evenodd" d="M119.555 6.66666C119.555 2.98477 122.54 0 126.222 0C129.805 0 132.728 2.82624 132.882 6.37089C132.889 6.46754 132.892 6.56613 132.889 6.66666C132.889 6.90092 132.877 7.13237 132.853 7.3604C132.291 15.0007 126.222 24 126.222 24C126.222 24 119.566 12.9057 119.555 6.68077L119.555 6.66666ZM130.222 4.88888C130.222 6.11618 128.431 7.1111 126.222 7.1111C124.013 7.1111 122.222 6.11618 122.222 4.88888C122.222 3.66159 124.013 2.66666 126.222 2.66666C128.431 2.66666 130.222 3.66159 130.222 4.88888ZM130.222 29.7778C130.222 31.005 128.431 32 126.222 32C124.013 32 122.222 31.005 122.222 29.7778C122.222 28.5505 124.013 27.5555 126.222 27.5555C128.431 27.5555 130.222 28.5505 130.222 29.7778Z" fill="#1EE0BD"/>
</svg>
